<svg width="294" height="64" viewBox="0 0 294 64" fill="none" xmlns="http://www.w3.org/2000/svg">

<symbol>

<path d="M59.5 16.75V4.5H70V6.25H71.75V9.75H70V11.5H71.75V15H70V16.75H59.5ZM63 9.75H68.25V6.25H63V9.75ZM63 15H68.25V11.5H63V15ZM77 16.75V15H75.25V13.25H73.5V8H75.25V6.25H77V4.5H84V6.25H85.75V8H82.25V6.25H78.75V8H77V13.25H78.75V15H82.25V13.25H85.75V15H84V16.75H77ZM92.75 16.75V6.25H89.25V4.5H99.75V6.25H96.25V16.75H92.75ZM101.5 16.75V8H103.25V6.25H105V4.5H110.25V6.25H112V8H113.75V16.75H110.25V13.25H105V16.75H101.5ZM105 11.5H110.25V8H108.5V6.25H106.75V8H105V11.5ZM115.5 16.75V4.5H126V6.25H127.75V9.75H126V11.5H127.75V15H126V16.75H115.5ZM119 9.75H124.25V6.25H119V9.75ZM119 15H124.25V11.5H119V15ZM129.5 16.75V4.5H133V8H140V9.75H141.75V15H140V16.75H129.5ZM133 15H138.25V9.75H133V15ZM148.75 16.75V6.25H145.25V4.5H155.75V6.25H152.25V16.75H148.75ZM157.5 16.75V4.5H169.75V6.25H161V9.75H168V11.5H161V15H169.75V16.75H157.5ZM59.5 39.5V36H61.25V32.5H63V25.5H71.75V36H73.5V39.5H70V37.75H63V39.5H59.5ZM64.75 36H68.25V27.25H64.75V36ZM73.5 37.75V25.5H77V32.5H78.75V30.75H80.5V29H82.25V25.5H85.75V37.75H82.25V32.5H80.5V34.25H78.75V36H77V37.75H73.5ZM91 37.75V36H89.25V34.25H87.5V29H89.25V27.25H91V25.5H98V27.25H99.75V29H96.25V27.25H92.75V29H91V34.25H92.75V36H96.25V34.25H99.75V36H98V37.75H91ZM106.75 29H108.5V30.75H110.25V32.5H112V36H113.75V37.75H110.25V36H108.5V32.5H105V37.75H101.5V25.5H105V30.75H106.75V29ZM113.75 25.5V27.25H112V29H108.5V27.25H110.25V25.5H113.75ZM115.5 37.75V25.5H127.75V27.25H119V30.75H126V32.5H119V36H127.75V37.75H115.5ZM134.75 37.75V27.25H131.25V25.5H141.75V27.25H138.25V37.75H134.75ZM145.25 37.75V36H143.5V34.25H147V36H152.25V32.5H145.25V30.75H143.5V25.5H147V30.75H152.25V25.5H155.75V36H154V37.75H145.25ZM159.25 39.5V37.75H161V34.25H164.5V37.75H162.75V39.5H159.25ZM194.25 37.75V32.5H187.25V30.75H185.5V25.5H189V30.75H194.25V25.5H197.75V37.75H194.25ZM204.75 37.75V27.25H201.25V25.5H211.75V27.25H208.25V37.75H204.75ZM215.25 37.75V36H213.5V27.25H215.25V25.5H224V27.25H225.75V36H224V37.75H215.25ZM217 36H222.25V27.25H217V36ZM227.5 37.75V25.5H238V27.25H231V30.75H238V32.5H239.75V36H238V37.75H227.5ZM231 36H236.25V32.5H231V36ZM241.5 37.75V25.5H245V29H248.5V37.75H241.5ZM250.25 37.75V25.5H253.75V37.75H250.25ZM245 36H246.75V30.75H245V36ZM59.5 58.75V46.5H71.75V58.75H68.25V48.25H63V58.75H59.5ZM73.5 58.75V46.5H84V48.25H85.75V53.5H84V55.25H77V58.75H73.5ZM77 53.5H82.25V48.25H77V53.5ZM89.25 58.75V57H87.5V48.25H89.25V46.5H98V48.25H99.75V57H98V58.75H89.25ZM91 57H96.25V48.25H91V57ZM101.5 60.5V57H103.25V53.5H105V46.5H113.75V57H115.5V60.5H112V58.75H105V60.5H101.5ZM106.75 57H110.25V48.25H106.75V57ZM117.25 58.75V57H115.5V48.25H117.25V46.5H126V48.25H127.75V57H126V58.75H117.25ZM119 57H124.25V48.25H119V57ZM129.5 58.75V55.25H131.25V53.5H133V46.5H141.75V58.75H138.25V48.25H134.75V57H133V58.75H129.5ZM147 46.5V51.75H145.25V50H143.5V46.5H147ZM150.5 51.75H152.25V53.5H150.5V58.75H148.75V53.5H147V51.75H148.75V46.5H150.5V51.75ZM155.75 46.5V50H154V51.75H152.25V46.5H155.75ZM145.25 53.5H147V58.75H143.5V55.25H145.25V53.5ZM152.25 58.75V53.5H154V55.25H155.75V58.75H152.25ZM157.5 58.75V46.5H161V53.5H162.75V51.75H164.5V50H166.25V46.5H169.75V58.75H166.25V53.5H164.5V55.25H162.75V57H161V58.75H157.5ZM176.75 58.75V48.25H173.25V46.5H183.75V48.25H180.25V58.75H176.75ZM185.5 58.75V46.5H189V50H196V51.75H197.75V57H196V58.75H185.5ZM189 57H194.25V51.75H189V57Z" fill="black"/>
<rect x="0.5" y="12.5" width="3" height="3" fill="black"/>
<rect x="0.5" y="15.5" width="3" height="3" fill="black"/>
<rect x="0.5" y="18.5" width="3" height="3" fill="black"/>
<rect x="0.5" y="21.5" width="3" height="3" fill="black"/>
<rect x="0.5" y="24.5" width="3" height="3" fill="black"/>
<rect x="0.5" y="27.5" width="3" height="3" fill="black"/>
<rect x="0.5" y="30.5" width="3" height="3" fill="black"/>
<rect x="0.5" y="33.5" width="3" height="3" fill="black"/>
<rect x="0.5" y="36.5" width="3" height="3" fill="black"/>
<rect x="0.5" y="39.5" width="3" height="3" fill="black"/>
<rect x="0.5" y="42.5" width="3" height="3" fill="black"/>
<rect x="0.5" y="45.5" width="3" height="3" fill="black"/>
<rect x="0.5" y="48.5" width="3" height="3" fill="black"/>
<rect x="33.5" y="12.5" width="3" height="3" transform="rotate(90 33.5 12.5)" fill="black"/>
<rect x="30.5" y="12.5" width="3" height="3" transform="rotate(90 30.5 12.5)" fill="black"/>
<rect x="27.5" y="12.5" width="3" height="3" transform="rotate(90 27.5 12.5)" fill="black"/>
<rect x="24.5" y="12.5" width="3" height="3" transform="rotate(90 24.5 12.5)" fill="black"/>
<rect x="21.5" y="12.5" width="3" height="3" transform="rotate(90 21.5 12.5)" fill="black"/>
<rect x="18.5" y="12.5" width="3" height="3" transform="rotate(90 18.5 12.5)" fill="black"/>
<rect x="15.5" y="12.5" width="3" height="3" transform="rotate(90 15.5 12.5)" fill="black"/>
<rect x="12.5" y="12.5" width="3" height="3" transform="rotate(90 12.5 12.5)" fill="black"/>
<rect x="9.5" y="12.5" width="3" height="3" transform="rotate(90 9.5 12.5)" fill="black"/>
<rect x="6.5" y="12.5" width="3" height="3" transform="rotate(90 6.5 12.5)" fill="black"/>
<rect x="36.5" y="15.5" width="3" height="3" transform="rotate(90 36.5 15.5)" fill="black"/>
<rect x="9.5" y="18.5" width="3" height="3" transform="rotate(90 9.5 18.5)" fill="black"/>
<rect x="9.5" y="15.5" width="3" height="3" transform="rotate(90 9.5 15.5)" fill="black"/>
<rect x="9.5" y="21.5" width="3" height="3" transform="rotate(90 9.5 21.5)" fill="black"/>
<rect x="30.5" y="18.5" width="3" height="3" transform="rotate(90 30.5 18.5)" fill="black"/>
<rect x="30.5" y="15.5" width="3" height="3" transform="rotate(90 30.5 15.5)" fill="black"/>
<rect x="30.5" y="21.5" width="3" height="3" transform="rotate(90 30.5 21.5)" fill="black"/>
<rect x="24.5" y="18.5" width="3" height="3" transform="rotate(90 24.5 18.5)" fill="black"/>
<rect x="24.5" y="15.5" width="3" height="3" transform="rotate(90 24.5 15.5)" fill="black"/>
<rect x="24.5" y="21.5" width="3" height="3" transform="rotate(90 24.5 21.5)" fill="black"/>
<rect x="30.5" y="24.5" width="3" height="3" transform="rotate(90 30.5 24.5)" fill="black"/>
<rect x="27.5" y="24.5" width="3" height="3" transform="rotate(90 27.5 24.5)" fill="black"/>
<rect x="24.5" y="24.5" width="3" height="3" transform="rotate(90 24.5 24.5)" fill="black"/>
<rect x="21.5" y="24.5" width="3" height="3" transform="rotate(90 21.5 24.5)" fill="black"/>
<rect x="18.5" y="24.5" width="3" height="3" transform="rotate(90 18.5 24.5)" fill="black"/>
<rect x="15.5" y="24.5" width="3" height="3" transform="rotate(90 15.5 24.5)" fill="black"/>
<rect x="12.5" y="24.5" width="3" height="3" transform="rotate(90 12.5 24.5)" fill="black"/>
<rect x="9.5" y="24.5" width="3" height="3" transform="rotate(90 9.5 24.5)" fill="black"/>
<rect x="33.5" y="33.5" width="3" height="3" transform="rotate(90 33.5 33.5)" fill="black"/>
<rect x="30.5" y="33.5" width="3" height="3" transform="rotate(90 30.5 33.5)" fill="black"/>
<rect x="27.5" y="33.5" width="3" height="3" transform="rotate(90 27.5 33.5)" fill="black"/>
<rect x="24.5" y="33.5" width="3" height="3" transform="rotate(90 24.5 33.5)" fill="black"/>
<rect x="21.5" y="33.5" width="3" height="3" transform="rotate(90 21.5 33.5)" fill="black"/>
<rect x="18.5" y="33.5" width="3" height="3" transform="rotate(90 18.5 33.5)" fill="black"/>
<rect x="15.5" y="33.5" width="3" height="3" transform="rotate(90 15.5 33.5)" fill="black"/>
<rect x="12.5" y="33.5" width="3" height="3" transform="rotate(90 12.5 33.5)" fill="black"/>
<rect x="9.5" y="33.5" width="3" height="3" transform="rotate(90 9.5 33.5)" fill="black"/>
<rect x="33.5" y="36.5" width="3" height="3" transform="rotate(90 33.5 36.5)" fill="black"/>
<rect x="9.5" y="36.5" width="3" height="3" transform="rotate(90 9.5 36.5)" fill="black"/>
<rect x="33.5" y="39.5" width="3" height="3" transform="rotate(90 33.5 39.5)" fill="black"/>
<rect x="9.5" y="39.5" width="3" height="3" transform="rotate(90 9.5 39.5)" fill="black"/>
<rect x="33.5" y="42.5" width="3" height="3" transform="rotate(90 33.5 42.5)" fill="black"/>
<rect x="9.5" y="42.5" width="3" height="3" transform="rotate(90 9.5 42.5)" fill="black"/>
<rect x="9.5" y="45.5" width="3" height="3" transform="rotate(90 9.5 45.5)" fill="black"/>
<rect x="33.5" y="45.5" width="3" height="3" transform="rotate(90 33.5 45.5)" fill="black"/>
<rect x="36.5" y="48.5" width="3" height="3" transform="rotate(90 36.5 48.5)" fill="black"/>
<rect x="33.5" y="48.5" width="3" height="3" transform="rotate(90 33.5 48.5)" fill="black"/>
<rect x="30.5" y="48.5" width="3" height="3" transform="rotate(90 30.5 48.5)" fill="black"/>
<rect x="27.5" y="48.5" width="3" height="3" transform="rotate(90 27.5 48.5)" fill="black"/>
<rect x="24.5" y="48.5" width="3" height="3" transform="rotate(90 24.5 48.5)" fill="black"/>
<rect x="21.5" y="48.5" width="3" height="3" transform="rotate(90 21.5 48.5)" fill="black"/>
<rect x="18.5" y="48.5" width="3" height="3" transform="rotate(90 18.5 48.5)" fill="black"/>
<rect x="15.5" y="48.5" width="3" height="3" transform="rotate(90 15.5 48.5)" fill="black"/>
<rect x="12.5" y="48.5" width="3" height="3" transform="rotate(90 12.5 48.5)" fill="black"/>
<rect x="9.5" y="48.5" width="3" height="3" transform="rotate(90 9.5 48.5)" fill="black"/>
<rect x="6.5" y="48.5" width="3" height="3" transform="rotate(90 6.5 48.5)" fill="black"/>
<rect x="39.5" y="51.5" width="3" height="3" transform="rotate(-180 39.5 51.5)" fill="black"/>
<rect x="39.5" y="48.5" width="3" height="3" transform="rotate(-180 39.5 48.5)" fill="black"/>
<rect x="39.5" y="45.5" width="3" height="3" transform="rotate(-180 39.5 45.5)" fill="black"/>
<rect x="39.5" y="42.5" width="3" height="3" transform="rotate(-180 39.5 42.5)" fill="black"/>
<rect x="39.5" y="39.5" width="3" height="3" transform="rotate(-180 39.5 39.5)" fill="black"/>
<rect x="39.5" y="36.5" width="3" height="3" transform="rotate(-180 39.5 36.5)" fill="black"/>
<rect x="39.5" y="33.5" width="3" height="3" transform="rotate(-180 39.5 33.5)" fill="black"/>
<rect x="39.5" y="30.5" width="3" height="3" transform="rotate(-180 39.5 30.5)" fill="black"/>
<rect x="39.5" y="27.5" width="3" height="3" transform="rotate(-180 39.5 27.5)" fill="black"/>
<rect x="39.5" y="24.5" width="3" height="3" transform="rotate(-180 39.5 24.5)" fill="black"/>
<rect x="39.5" y="21.5" width="3" height="3" transform="rotate(-180 39.5 21.5)" fill="black"/>

</symbol>

</svg>
